<svg xmlns="http://www.w3.org/2000/svg" xmlns:svg="http://www.w3.org/2000/svg" id="svg3072" width="512" height="512" version="1.1" viewBox="0 0 135.467 135.467"><metadata id="metadata3069"/><g id="layer1"><symbol id="New_Symbol_14" transform="matrix(2.7150288,0,0,3.1647301,5.601574,-2.7016272)" viewBox="-6.5 -6.5 13 13"><path id="path3637" d="m 0,-6 c 2.2,0 4.1,1.5 4.7,3.5 0,0 0,0 0,0 C 6.3,-2.5 6.4,0 5,0 V 1 C 5,3.8 2.8,6 0,6 -2.8,6 -5,3.8 -5,1 V 0 c -1.4,0 -1.3,-2.5 0.2,-2.5 0,0 0,0 0,0 0.7,-2 2.6,-3.5 4.8,-3.5 z" class="st0"/><g id="g3643"><circle id="circle3639" cx="-1.6" cy="-.1" r=".1" class="st1"/><path id="path3641" d="m -1.6,0.5 c -0.3,0 -0.6,-0.3 -0.6,-0.6 0,-0.3 0.2,-0.7 0.6,-0.7 0.3,0 0.6,0.3 0.6,0.7 0,0.4 -0.3,0.6 -0.6,0.6 z" class="st2"/></g><g id="g3649"><circle id="circle3645" cx="1.6" cy="-.1" r=".1" class="st1"/><path id="path3647" d="M 1.6,0.5 C 1.3,0.5 1,0.2 1,-0.1 c 0,-0.3 0.3,-0.6 0.6,-0.6 0.3,0 0.6,0.3 0.6,0.6 0,0.3 -0.2,0.6 -0.6,0.6 z" class="st2"/></g><circle id="circle3651" cx="-3" cy="-1.5" r=".5" class="st3"/><circle id="circle3653" cx="3" cy="-1.5" r=".5" class="st3"/><path id="path3655" d="m -1.2,-3 c 0.8,-0.5 1.7,-0.5 2.5,0" class="st4"/></symbol><g id="Icons" transform="matrix(2.6632159,0,0,3.1647301,8.0471433,-2.7016272)"><rect style="fill:none;fill-opacity:1;stroke:#3d3d3d;stroke-width:2.27840521;stroke-linejoin:round;stroke-miterlimit:4;stroke-dasharray:none;stroke-opacity:1" id="rect2757" width="48.022" height="38.118" x="-1.642" y="4.301"/><path style="fill:none;stroke:#3d3d3d;stroke-width:3.1448;stroke-linecap:butt;stroke-linejoin:miter;stroke-miterlimit:4;stroke-dasharray:none;stroke-opacity:1" id="path850" d="m 4.0318203,30.294135 14.0123847,-12.58755 9.013386,9.365923"/><path style="fill:none;stroke:#3d3d3d;stroke-width:3.13532;stroke-linecap:butt;stroke-linejoin:miter;stroke-miterlimit:4;stroke-dasharray:none;stroke-opacity:1" id="path852" d="m 12.533927,37.845279 18.261705,-13.650937 9.66589,7.241662"/><ellipse style="fill:none;stroke:#3d3d3d;stroke-width:1.91168;stroke-linejoin:round;stroke-miterlimit:4;stroke-dasharray:none;stroke-opacity:1" id="path854" cx="30.899" cy="16.018" rx="3.572" ry="3.006"/><rect style="fill:none;fill-opacity:1;stroke:#3d3d3d;stroke-width:2.27841;stroke-linejoin:round;stroke-miterlimit:4;stroke-dasharray:none;stroke-opacity:1" id="rect2757-8" width="36.594" height="28.851" x="3.748" y="9.512"/></g></g><style id="style3635" type="text/css">.st0{fill:#ffd4c3;stroke:#504b46;stroke-linecap:round;stroke-linejoin:round;stroke-miterlimit:10}.st1{fill:#ffc258}.st2{fill:#4f4b45}.st3{fill:#fabfa5}.st4{fill:none;stroke:#504b46;stroke-linecap:round;stroke-linejoin:round;stroke-miterlimit:10}</style></svg>