<svg xmlns="http://www.w3.org/2000/svg" xmlns:svg="http://www.w3.org/2000/svg" id="svg3072" width="512" height="512" version="1.1" viewBox="0 0 135.467 135.467"><metadata id="metadata3069"/><g id="layer1"><symbol id="New_Symbol_14" transform="matrix(2.7150288,0,0,3.1647301,5.601574,-2.7016272)" viewBox="-6.5 -6.5 13 13"><path id="path3637" d="m 0,-6 c 2.2,0 4.1,1.5 4.7,3.5 0,0 0,0 0,0 C 6.3,-2.5 6.4,0 5,0 V 1 C 5,3.8 2.8,6 0,6 -2.8,6 -5,3.8 -5,1 V 0 c -1.4,0 -1.3,-2.5 0.2,-2.5 0,0 0,0 0,0 0.7,-2 2.6,-3.5 4.8,-3.5 z" class="st0"/><g id="g3643"><circle id="circle3639" cx="-1.6" cy="-.1" r=".1" class="st1"/><path id="path3641" d="m -1.6,0.5 c -0.3,0 -0.6,-0.3 -0.6,-0.6 0,-0.3 0.2,-0.7 0.6,-0.7 0.3,0 0.6,0.3 0.6,0.7 0,0.4 -0.3,0.6 -0.6,0.6 z" class="st2"/></g><g id="g3649"><circle id="circle3645" cx="1.6" cy="-.1" r=".1" class="st1"/><path id="path3647" d="M 1.6,0.5 C 1.3,0.5 1,0.2 1,-0.1 c 0,-0.3 0.3,-0.6 0.6,-0.6 0.3,0 0.6,0.3 0.6,0.6 0,0.3 -0.2,0.6 -0.6,0.6 z" class="st2"/></g><circle id="circle3651" cx="-3" cy="-1.5" r=".5" class="st3"/><circle id="circle3653" cx="3" cy="-1.5" r=".5" class="st3"/><path id="path3655" d="m -1.2,-3 c 0.8,-0.5 1.7,-0.5 2.5,0" class="st4"/></symbol><g id="Icons" transform="matrix(2.6632159,0,0,3.1647301,8.0471433,-2.7016272)"><rect style="fill:#019106;fill-opacity:1;stroke:none;stroke-width:2.22298;stroke-linejoin:round;stroke-miterlimit:4;stroke-dasharray:none;stroke-opacity:1" id="rect3806" width="6.106" height="26.915" x="6.695" y="15.22"/><path style="fill:#bc6d09;fill-opacity:1;stroke:none;stroke-width:1.95253;stroke-linecap:butt;stroke-linejoin:round;stroke-miterlimit:4;stroke-dasharray:none;stroke-opacity:1" id="path3804" d="M 12.084737,2.2952459 C 15.59929,2.4245439 22.3596,5.3753395 22.074012,16.953179 l -8.705026,9.484544 C 12.79589,28.443164 10.933967,28.018717 8.9812717,27.423131 3.8640448,31.532099 0.15926133,30.600382 -1.8808565,23.727855 -2.1301083,19.822074 -1.412642,16.408516 1.9984753,14.304896 2.9598154,9.6259718 4.6470498,2.9906959 12.084737,2.2952459 Z"/><path style="fill:#af0ae7;fill-opacity:1;stroke:none;stroke-width:2.07195;stroke-linecap:butt;stroke-linejoin:miter;stroke-miterlimit:4;stroke-dasharray:none;stroke-opacity:1" id="path3810" d="M 14.575346,42.011503 H 36.687709 V 21.344845 L 25.631528,13.022702 14.575346,21.344845 Z"/><rect style="fill:#f45847;fill-opacity:1;stroke:none;stroke-width:1.96174;stroke-linejoin:round;stroke-miterlimit:4;stroke-dasharray:none;stroke-opacity:1" id="rect3812" width="8.634" height="12.719" x="18.984" y="29.233"/><path style="fill:#030092;fill-opacity:1;stroke:none;stroke-width:1.6567;stroke-linecap:butt;stroke-linejoin:miter;stroke-miterlimit:4;stroke-dasharray:none;stroke-opacity:1" id="path3808" d="m 11.677124,24.47149 c 0.621095,0.706652 1.262688,1.305642 2.146831,0.630594 L 25.631528,15.012607 36.687709,24.47149 c 0.881585,0.64742 1.697746,1.796169 2.898225,0 0.419241,-0.992316 0.648379,-1.984633 -0.31967,-2.976949 L 25.467323,10.207636 12.213832,21.160881 c -1.123265,1.336968 -0.685241,2.288009 -0.536708,3.310609 z"/><path style="fill:#0edccd;fill-opacity:1;stroke:none;stroke-width:2.44306;stroke-linecap:butt;stroke-linejoin:miter;stroke-miterlimit:4;stroke-dasharray:none;stroke-opacity:1" id="path3814" d="m 32.972118,42.014737 c -0.704236,-1.046546 -0.804337,-1.798815 -1.069753,-2.631609 -0.926211,-6.835098 6.417278,-11.401914 10.162642,-2.631614 1.956587,-0.463431 5.701095,-1.718949 4.412726,3.870017 -0.131026,0.690643 -0.452639,1.377922 -1.069752,1.393206 H 32.972118"/></g></g><style id="style3635" type="text/css">.st0{fill:#ffd4c3;stroke:#504b46;stroke-linecap:round;stroke-linejoin:round;stroke-miterlimit:10}.st1{fill:#ffc258}.st2{fill:#4f4b45}.st3{fill:#fabfa5}.st4{fill:none;stroke:#504b46;stroke-linecap:round;stroke-linejoin:round;stroke-miterlimit:10}</style></svg>