<svg xmlns="http://www.w3.org/2000/svg" xmlns:svg="http://www.w3.org/2000/svg" id="svg8" width="800" height="800" aria-hidden="true" class="iconify iconify--emojione-monotone" preserveAspectRatio="xMidYMid meet" role="img" version="1.1" viewBox="0 0 64 64"><path style="fill:#3d3d3d;fill-opacity:1;stroke:none;stroke-width:.0466362px;stroke-linecap:butt;stroke-linejoin:miter;stroke-opacity:1" id="path1407-6" d="M 36.346645,17.736456 C 44.541556,17.113278 48.564571,11.336075 49.124607,1.2806579 49.581699,6.4751392 50.734996,16.248867 61.902569,17.736456 54.632101,18.754352 49.833513,23.439554 49.124607,34.192254 48.087436,21.299276 41.283335,18.342739 36.346645,17.736456"/><metadata id="metadata14"/><path style="fill:#3d3d3d;fill-opacity:1;stroke:none;stroke-width:.08px;stroke-linecap:butt;stroke-linejoin:miter;stroke-opacity:1" id="path1407" d="M 2,32.429975 C 15.227465,31.29388 21.721042,20.761661 22.625,2.4299747 23.362795,11.899856 25.224341,29.718003 43.25,32.429975 c -11.735313,1.855692 -19.480749,10.397123 -20.625,30 C 20.950895,38.92523 9.9683483,33.53527 2,32.429975"/><path style="fill:#3d3d3d;fill-opacity:1;stroke:none;stroke-width:.0446451px;stroke-linecap:butt;stroke-linejoin:miter;stroke-opacity:1" id="path1407-6-4" d="M 32.906847,47.834682 C 40.998348,47.256282 44.970598,41.8942 45.523568,32.561314 45.974892,37.382546 47.113637,46.453983 58.14029,47.834682 50.961564,48.779437 46.223529,53.127984 45.523568,63.108049 44.499484,51.141495 37.781242,48.3974 32.906847,47.834682"/></svg>