<svg xmlns="http://www.w3.org/2000/svg" xmlns:svg="http://www.w3.org/2000/svg" id="svg8" width="512" height="512" version="1.1" viewBox="0 0 135.467 135.467"><metadata id="metadata5"/><g id="layer1"><path style="fill:#3d3d3d;fill-opacity:1;stroke:#3d3d3d;stroke-width:5.29166667;stroke-linecap:butt;stroke-linejoin:miter;stroke-miterlimit:4;stroke-dasharray:none;stroke-opacity:1" id="path847" d="M 68.056992,3.7002994 C 51.35,30.337211 13.678454,42.309088 18.861598,88.813877 c 5.355807,20.480443 25.903897,41.384673 49.19396,41.363833"/><path style="fill:#3d3d3d;fill-opacity:1;stroke:#3d3d3d;stroke-width:5.29166667;stroke-linecap:round;stroke-linejoin:round;stroke-miterlimit:4;stroke-dasharray:none;stroke-opacity:1" id="path847-2" d="M 68.056992,3.7002994 C 84.76399,30.337211 122.43553,42.309088 117.25239,88.813877 111.89658,109.29432 91.345623,130.19855 68.055558,130.17771"/><path style="fill:#6b6b6b;fill-opacity:1;stroke:none;stroke-width:1;stroke-linecap:butt;stroke-linejoin:miter;stroke-miterlimit:4;stroke-dasharray:none;stroke-opacity:1" id="path853" d="M 50.721901,62.963921 67.919668,44.463995 85.703724,62.769186 67.919668,80.879641 Z"/><path style="fill:#7a7a7a;fill-opacity:1;stroke:none;stroke-width:1;stroke-linecap:butt;stroke-linejoin:miter;stroke-miterlimit:4;stroke-dasharray:none;stroke-opacity:1" id="path855" d="M 67.919668,44.463995 50.331044,27.327219 C 37.390011,39.658472 32.678104,44.265675 32.742415,45.048202 l 17.979486,17.915719 z"/><path style="fill:#6b6b6b;fill-opacity:1;stroke:none;stroke-width:1;stroke-linecap:butt;stroke-linejoin:miter;stroke-miterlimit:4;stroke-dasharray:none;stroke-opacity:1" id="path857" d="M 50.721901,62.963921 33.524133,80.490171 21.847238,69.877052 C 24.711859,57.981297 27.94621,49.811871 32.742415,45.048202 Z"/><path style="fill:#616161;fill-opacity:1;stroke:none;stroke-width:1;stroke-linecap:butt;stroke-linejoin:miter;stroke-miterlimit:4;stroke-dasharray:none;stroke-opacity:1" id="path859" d="M 33.524133,80.490171 50.331044,98.405891 67.919668,80.879641 50.721901,62.963921 Z"/><path style="fill:#474747;fill-opacity:1;stroke:none;stroke-width:1;stroke-linecap:butt;stroke-linejoin:miter;stroke-miterlimit:4;stroke-dasharray:none;stroke-opacity:1" id="path861" d="M 67.919668,80.879641 50.331044,98.405888 67.431096,115.64003 85.117436,97.626946 Z"/><path style="fill:#8a8a8a;fill-opacity:1;stroke:none;stroke-width:1;stroke-linecap:butt;stroke-linejoin:miter;stroke-miterlimit:4;stroke-dasharray:none;stroke-opacity:1" id="path863" d="M 67.919668,44.463995 85.703724,27.132481 C 77.886827,20.546455 71.458469,14.163903 68.05699,8.2248997 63.004955,15.979398 56.848081,21.944905 50.331044,27.327219 Z"/><path style="fill:#7a7a7a;fill-opacity:1;stroke:none;stroke-width:1;stroke-linecap:butt;stroke-linejoin:miter;stroke-miterlimit:4;stroke-dasharray:none;stroke-opacity:1" id="path855-4" d="M 67.919668,44.463995 85.703724,27.132481 C 98.644756,39.463734 103.74752,44.07094 103.68321,44.853467 L 85.703724,62.769186 Z"/><path style="fill:#6b6b6b;fill-opacity:1;stroke:none;stroke-width:1;stroke-linecap:butt;stroke-linejoin:miter;stroke-miterlimit:4;stroke-dasharray:none;stroke-opacity:1" id="path857-4" d="m 85.703724,62.769186 17.197766,17.52625 11.37724,-10.626785 C 111.28007,57.414643 108.09148,49.47737 103.68321,44.853467 Z"/><path style="fill:#616161;fill-opacity:1;stroke:none;stroke-width:1;stroke-linecap:butt;stroke-linejoin:miter;stroke-miterlimit:4;stroke-dasharray:none;stroke-opacity:1" id="path859-5" d="M 67.919668,80.879641 85.117436,97.626946 102.70606,80.100695 85.703724,62.769186 Z"/></g></svg>