<svg xmlns="http://www.w3.org/2000/svg" xmlns:svg="http://www.w3.org/2000/svg" id="svg9" width="96.8" height="107.2" version="1.1" viewBox="0 0 96.8 107.2" xml:space="preserve"><metadata id="metadata13"/><style id="style2" type="text/css">.st2{fill:none}</style><path id="path6" d="m 78.6,28 v 73 c 0,3.4 -2.8,6.2 -6.2,6.2 H 24.3 c -3.4,0 -6.2,-2.8 -6.2,-6.2 V 28 Z m -15.7,8.1 v 62.8 l 5.064371,0 V 36.1 Z m -17.276247,0 v 62.8 l 5.87791,0 V 36.1 Z m -17.113539,0 V 98.9 H 33.9 V 36.1 Z M 34.3,11.1 V 5.9 C 34.3,2.6 36.9,0 40.2,0 h 16.4 c 3.3,0 5.9,2.6 5.9,5.9 v 5.2 h 18.1 c 3.4,0 6.2,2.8 6.2,6.2 v 4.3 H 10 V 17.2 C 10,13.8 12.8,11 16.2,11 H 34.3 Z M 40.2,4 c -1,0 -1.8,0.8 -1.8,1.8 V 11 H 58.5 V 5.8 C 58.5,4.8 57.7,4 56.7,4 Z" style="fill:#3d3d3d;fill-opacity:1"/><rect id="_x3C_Slice_x3E__100_" width="98" height="137" x="3" y="-16.8" class="st2"/></svg>