<svg xmlns="http://www.w3.org/2000/svg" xmlns:svg="http://www.w3.org/2000/svg" id="Layer_1" width="42" height="42" x="0" y="0" version="1.1" viewBox="0 0 42 42" xml:space="preserve"><metadata id="metadata9"/><g id="g997" style="stroke:#c8c8c8;stroke-width:2.48759;stroke-miterlimit:4;stroke-dasharray:none;stroke-opacity:1" transform="matrix(1.2067644,0,0,1.2052118,-3.4530397,-2.9676917)"><path style="fill:none;stroke:#c8c8c8;stroke-width:2.48759;stroke-linecap:round;stroke-linejoin:round;stroke-miterlimit:4;stroke-dasharray:none;stroke-opacity:1" id="path904" d="M 6.0855108,11.223277 19.902613,4.7387173 34.268409,10.874109 34.31829,29.180523 20.351544,35.365796 6.0855107,28.831354 Z"/><path style="fill:none;stroke:#c8c8c8;stroke-width:2.48759;stroke-linecap:butt;stroke-linejoin:miter;stroke-miterlimit:4;stroke-dasharray:none;stroke-opacity:1" id="path906" d="M 6.3847982,11.123515 20.251782,17.059382 34.218528,10.92399"/><path style="fill:none;stroke:#c8c8c8;stroke-width:2.48759;stroke-linecap:butt;stroke-linejoin:miter;stroke-miterlimit:4;stroke-dasharray:none;stroke-opacity:1" id="path908" d="m 20.251782,17.059382 0.09976,18.306414"/></g><ellipse style="fill:#c8c8c8;fill-opacity:1;stroke:none;stroke-width:2;stroke-linecap:round;stroke-linejoin:round;stroke-miterlimit:4;stroke-dasharray:none;stroke-opacity:1" id="path910" cx="20.891" cy="9.793" rx="2.769" ry="1.834"/><ellipse style="fill:#c8c8c8;fill-opacity:1;stroke:none;stroke-width:2;stroke-linecap:round;stroke-linejoin:round;stroke-miterlimit:4;stroke-dasharray:none;stroke-opacity:1" id="path912" cx="-.181" cy="26.583" rx="2.021" ry="2.706" transform="matrix(0.83087536,-0.55645856,0.55744773,0.83021204,0,0)"/><ellipse style="fill:#c8c8c8;fill-opacity:1;stroke:none;stroke-width:2;stroke-linecap:round;stroke-linejoin:round;stroke-miterlimit:4;stroke-dasharray:none;stroke-opacity:1" id="path916" cx="34.072" cy="-2.766" rx="1.656" ry="2.396" transform="matrix(0.73481511,0.67826746,-0.67920997,0.73394402,0,0)"/><ellipse style="fill:#c8c8c8;fill-opacity:1;stroke:none;stroke-width:2;stroke-linecap:round;stroke-linejoin:round;stroke-miterlimit:4;stroke-dasharray:none;stroke-opacity:1" id="path912-7" cx="-7.437" cy="28.62" rx="1.77" ry="2.706" transform="matrix(0.83087536,-0.55645856,0.55744773,0.83021204,0,0)"/><ellipse style="fill:#c8c8c8;fill-opacity:1;stroke:none;stroke-width:2;stroke-linecap:round;stroke-linejoin:round;stroke-miterlimit:4;stroke-dasharray:none;stroke-opacity:1" id="path916-4" cx="36.672" cy="-8.833" rx="1.656" ry="2.396" transform="matrix(0.73481511,0.67826746,-0.67920997,0.73394402,0,0)"/><ellipse style="fill:#c8c8c8;fill-opacity:1;stroke:none;stroke-width:2;stroke-linecap:round;stroke-linejoin:round;stroke-miterlimit:4;stroke-dasharray:none;stroke-opacity:1" id="path916-2" cx="40.371" cy="-5.105" rx="1.656" ry="2.396" transform="matrix(0.73481511,0.67826746,-0.67920997,0.73394402,0,0)"/><ellipse style="fill:#c8c8c8;fill-opacity:1;stroke:none;stroke-width:2;stroke-linecap:round;stroke-linejoin:round;stroke-miterlimit:4;stroke-dasharray:none;stroke-opacity:1" id="path916-0" cx="43.888" cy="-1.181" rx="1.656" ry="2.396" transform="matrix(0.73481511,0.67826746,-0.67920997,0.73394402,0,0)"/><ellipse style="fill:#c8c8c8;fill-opacity:1;stroke:none;stroke-width:2;stroke-linecap:round;stroke-linejoin:round;stroke-miterlimit:4;stroke-dasharray:none;stroke-opacity:1" id="path916-25" cx="37.765" cy="1.274" rx="1.656" ry="2.396" transform="matrix(0.73481511,0.67826746,-0.67920997,0.73394402,0,0)"/><ellipse style="fill:#c8c8c8;fill-opacity:1;stroke:none;stroke-width:2;stroke-linecap:round;stroke-linejoin:round;stroke-miterlimit:4;stroke-dasharray:none;stroke-opacity:1" id="path916-8" cx="41.318" cy="5.117" rx="1.656" ry="2.396" transform="matrix(0.73481511,0.67826746,-0.67920997,0.73394402,0,0)"/></svg>