<svg xmlns="http://www.w3.org/2000/svg" xmlns:svg="http://www.w3.org/2000/svg" id="svg866" width="512" height="512" version="1.1" viewBox="0 0 135.467 135.467"><metadata id="metadata863"/><g id="layer1"><rect style="fill:#3d3d3d;fill-opacity:1;stroke-width:10.5833;stroke-linecap:round;stroke-linejoin:round" id="rect1431" width="132.292" height="90.133" x="1.701" y="25.528" rx="21.167" ry="24.035"/><g id="text836" aria-label="XL" transform="scale(0.80484602,1.2424737)" style="font-style:normal;font-weight:400;font-size:15.824px;line-height:1.25;font-family:sans-serif;fill:#3d3d3d;fill-opacity:1;stroke:none;stroke-width:.264583"><g id="text845" aria-label="1.5" transform="scale(1.2424737,0.80484603)" style="font-style:normal;font-weight:400;font-size:22.4758px;line-height:1.25;font-family:sans-serif;fill:#3d3d3d;fill-opacity:1;stroke:none;stroke-width:.0700041"><path d="m 34.735252,107.64451 7.336112,-69.369415 -6.47304,-0.53942 -26.323697,17.908744 5.070548,8.0913 13.269732,-8.307068 -5.3942,52.215859 z" style="font-style:normal;font-variant:normal;font-weight:500;font-stretch:normal;font-size:107.884px;font-family:Postface;-inkscape-font-specification:'Postface Medium';fill:#c8c8c8;fill-opacity:1;stroke-width:.0700041" id="path847"/><path d="m 48.112768,99.984744 c 0,4.207476 3.452288,7.659766 7.659764,7.659766 4.207476,0 7.659764,-3.45229 7.659764,-7.659766 0,-4.207476 -3.452288,-7.659764 -7.659764,-7.659764 -4.207476,0 -7.659764,3.452288 -7.659764,7.659764 z" style="font-style:normal;font-variant:normal;font-weight:500;font-stretch:normal;font-size:107.884px;font-family:Postface;-inkscape-font-specification:'Postface Medium';fill:#c8c8c8;fill-opacity:1;stroke-width:.0700041" id="path849"/><path d="M 122.22889,34.930691 H 85.97987 l -7.767648,33.44404 6.688808,6.257273 c 3.991708,-0.970956 6.257272,-2.373449 10.356864,-2.373449 5.825736,0 10.356866,4.746897 10.356866,10.572633 0,7.659764 -7.875534,12.083008 -15.535298,12.083008 -5.93362,0 -9.601676,-1.294608 -14.887992,-3.020752 l -4.531128,12.298776 c 6.041504,2.48133 11.219936,4.31536 18.771816,4.31536 16.722022,0 33.012502,-10.680516 33.012502,-27.402536 0,-12.514545 -10.35686,-22.655641 -22.871406,-22.655641 H 95.15001 l 2.265564,-10.572632 h 22.871406 z" style="font-style:normal;font-variant:normal;font-weight:500;font-stretch:normal;font-size:107.884px;font-family:Postface;-inkscape-font-specification:'Postface Medium';fill:#c8c8c8;fill-opacity:1;stroke-width:.0700041" id="path851"/></g></g></g></svg>